<svg width="16" height="16" viewBox="0 0 16 16" fill="none" xmlns="http://www.w3.org/2000/svg">
<path d="M8.375 0.203125C5.1685 0.203125 2 2.34062 2 5.80012C2 8.00012 3.2375 9.25012 3.9875 9.25012C4.297 9.25012 4.475 8.38762 4.475 8.14412C4.475 7.85362 3.7345 7.23462 3.7345 6.02512C3.7345 3.51262 5.647 1.73112 8.122 1.73112C10.25 1.73112 11.825 2.94062 11.825 5.16262C11.825 6.82212 11.1595 9.93462 9.003 9.93462C8.225 9.93462 7.559 9.37212 7.559 8.56612C7.559 7.38462 8.384 6.24112 8.384 5.02212C8.384 2.95362 5.4495 3.32862 5.4495 5.82862C5.4495 6.35362 5.515 6.93462 5.7495 7.41312C5.318 9.26962 4.437 12.0351 4.437 13.9476C4.437 14.5381 4.5215 15.1196 4.5775 15.7101C4.6835 15.8291 4.6305 15.8166 4.793 15.7571C6.368 13.6006 6.312 13.1791 7.0245 10.3571C7.409 11.0886 8.4025 11.4821 9.19 11.4821C12.5085 11.4821 13.9995 8.24762 13.9995 5.33212C13.9995 2.22912 11.318 0.204125 8.3745 0.204125L8.375 0.203125Z" fill="black"/>
</svg>
