<svg width="16" height="16" viewBox="0 0 16 16" fill="none" xmlns="http://www.w3.org/2000/svg">
<g clip-path="url(#clip0_1_106)">
<path d="M8.00102 0C5.82652 0 5.55551 0.0105013 4.70451 0.0465058C3.85001 0.0885111 3.27201 0.221028 2.76201 0.419052C2.22825 0.620588 1.74485 0.936125 1.34551 1.34367C0.936885 1.74212 0.621213 2.22584 0.421014 2.76034C0.223014 3.27041 0.0905142 3.84848 0.0485142 4.70309C0.0100142 5.55469 0.00201416 5.82523 0.00201416 8C0.00201416 10.1748 0.0125142 10.4458 0.0485142 11.2969C0.0905142 12.149 0.223014 12.7296 0.421014 13.2397C0.622524 13.7735 0.938022 14.257 1.34551 14.6563C1.74391 15.065 2.22758 15.3807 2.76201 15.5809C3.27201 15.7765 3.85251 15.9115 4.70451 15.9535C5.55601 15.992 5.82652 16 8.00102 16C10.1755 16 10.4465 15.9895 11.2975 15.9535C12.1495 15.9115 12.73 15.776 13.24 15.5809C13.7738 15.3794 14.2572 15.0639 14.6565 14.6563C15.0657 14.2583 15.3814 13.7745 15.581 13.2397C15.7765 12.7296 15.9115 12.149 15.9535 11.2969C15.992 10.4453 16 10.1748 16 8C16 5.82523 15.9895 5.55419 15.9535 4.70309C15.9115 3.85098 15.776 3.26741 15.581 2.76034C15.3795 2.22651 15.064 1.74305 14.6565 1.34367C14.2586 0.934462 13.7748 0.618667 13.24 0.419052C12.73 0.221028 12.1495 0.0885111 11.2975 0.0465058C10.446 0.008001 10.1755 0 8.00102 0ZM8.00102 1.44018C10.1365 1.44018 10.3915 1.45068 11.2355 1.48669C12.014 1.52319 12.438 1.65321 12.7195 1.76322C13.0675 1.8917 13.3825 2.09619 13.6415 2.3618C13.9066 2.61974 14.1103 2.93404 14.2375 3.28141C14.3475 3.56295 14.4775 3.987 14.514 4.7656C14.55 5.6097 14.5605 5.86523 14.5605 8.0005C14.5605 10.1358 14.55 10.3913 14.511 11.2354C14.469 12.014 14.339 12.4381 14.2295 12.7196C14.078 13.0951 13.909 13.3577 13.63 13.6417C13.3701 13.9056 13.0554 14.1092 12.708 14.2378C12.43 14.3478 12 14.4778 11.2185 14.5143C10.37 14.5503 10.12 14.5608 7.97902 14.5608C5.83802 14.5608 5.58851 14.5503 4.73901 14.5113C3.96051 14.4693 3.53101 14.3393 3.24951 14.2298C2.86951 14.0783 2.60901 13.9092 2.33001 13.6302C2.04851 13.3487 1.86951 13.0806 1.73151 12.7081C1.61951 12.4301 1.49151 12 1.45001 11.2184C1.42151 10.3798 1.40801 10.1198 1.40801 7.9885C1.40801 5.85823 1.42151 5.5977 1.45001 4.74859C1.49151 3.967 1.61951 3.53794 1.73151 3.25891C1.86951 2.87836 2.04901 2.61833 2.33001 2.33679C2.60851 2.05826 2.86951 1.87823 3.24951 1.73722C3.53101 1.6277 3.95001 1.49769 4.73151 1.45868C5.58002 1.42818 5.83002 1.41718 7.96802 1.41718L8.00102 1.44018ZM8.00102 3.89399C7.46169 3.89379 6.92761 3.99989 6.42929 4.20621C5.93098 4.41254 5.4782 4.71505 5.09684 5.09646C4.71548 5.47787 4.413 5.93071 4.2067 6.42908C4.0004 6.92746 3.89432 7.4616 3.89451 8.001C3.89432 8.5404 4.0004 9.07455 4.2067 9.57292C4.413 10.0713 4.71548 10.5241 5.09684 10.9055C5.4782 11.2869 5.93098 11.5895 6.42929 11.7958C6.92761 12.0021 7.46169 12.1082 8.00102 12.108C8.54034 12.1082 9.07442 12.0021 9.57274 11.7958C10.0711 11.5895 10.5238 11.2869 10.9052 10.9055C11.2866 10.5241 11.589 10.0713 11.7953 9.57292C12.0016 9.07455 12.1077 8.5404 12.1075 8.001C12.1077 7.4616 12.0016 6.92746 11.7953 6.42908C11.589 5.93071 11.2866 5.47787 10.9052 5.09646C10.5238 4.71505 10.0711 4.41254 9.57274 4.20621C9.07442 3.99989 8.54034 3.89379 8.00102 3.89399ZM8.00102 10.6678C6.52702 10.6678 5.33451 9.47518 5.33451 8.001C5.33451 6.52682 6.52702 5.33417 8.00102 5.33417C9.47502 5.33417 10.6675 6.52682 10.6675 8.001C10.6675 9.47518 9.47502 10.6678 8.00102 10.6678ZM13.233 3.72997C13.2328 3.98483 13.1313 4.22917 12.951 4.40929C12.7708 4.58941 12.5263 4.69059 12.2715 4.69059C12.1455 4.69059 12.0207 4.66577 11.9043 4.61754C11.7879 4.56931 11.6821 4.49863 11.593 4.40952C11.5039 4.32041 11.4333 4.21462 11.3851 4.0982C11.3368 3.98177 11.312 3.85699 11.312 3.73097C11.312 3.60495 11.3368 3.48016 11.3851 3.36374C11.4333 3.24731 11.5039 3.14152 11.593 3.05241C11.6821 2.9633 11.7879 2.89262 11.9043 2.84439C12.0207 2.79617 12.1455 2.77135 12.2715 2.77135C12.8 2.77135 13.233 3.2014 13.233 3.72997Z" fill="black"/>
</g>
<defs>
<clipPath id="clip0_1_106">
<rect width="16" height="16" fill="white"/>
</clipPath>
</defs>
</svg>
