<svg width="24" height="24" viewBox="0 0 24 24" fill="none" xmlns="http://www.w3.org/2000/svg">
<g clip-path="url(#clip0_4_299)">
<path d="M11.9985 0C8.73675 0 8.33025 0.01575 7.05375 0.06975C5.772 0.13275 4.905 0.3315 4.14 0.6285C3.33935 0.930765 2.61425 1.40401 2.01525 2.01525C1.40231 2.61285 0.928797 3.33835 0.6285 4.14C0.3315 4.905 0.13275 5.772 0.06975 7.05375C0.012 8.331 0 8.73675 0 11.9985C0 15.2603 0.01575 15.6667 0.06975 16.9432C0.13275 18.2213 0.3315 19.092 0.6285 19.857C0.930765 20.6577 1.40401 21.3828 2.01525 21.9818C2.61285 22.5947 3.33835 23.0682 4.14 23.3685C4.905 23.6618 5.77575 23.8643 7.05375 23.9272C8.331 23.985 8.73675 23.997 11.9985 23.997C15.2602 23.997 15.6667 23.9813 16.9432 23.9272C18.2212 23.8643 19.092 23.661 19.857 23.3685C20.6577 23.0662 21.3827 22.593 21.9817 21.9818C22.5955 21.3848 23.0691 20.6591 23.3685 19.857C23.6617 19.092 23.8642 18.2213 23.9272 16.9432C23.985 15.666 23.997 15.2603 23.997 11.9985C23.997 8.73675 23.9812 8.33025 23.9272 7.05375C23.8642 5.77575 23.661 4.9005 23.3685 4.14C23.0662 3.33935 22.593 2.61425 21.9817 2.01525C21.3848 1.40152 20.6591 0.927885 19.857 0.6285C19.092 0.3315 18.2212 0.13275 16.9432 0.06975C15.666 0.012 15.2602 0 11.9985 0ZM11.9985 2.16C15.2017 2.16 15.5842 2.17575 16.8502 2.22975C18.018 2.2845 18.654 2.4795 19.0762 2.6445C19.5983 2.83719 20.0707 3.14389 20.4592 3.54225C20.8569 3.92912 21.1625 4.40051 21.3532 4.9215C21.5182 5.34375 21.7132 5.97975 21.768 7.1475C21.822 8.4135 21.8377 8.79675 21.8377 11.9992C21.8377 15.2017 21.822 15.585 21.7635 16.851C21.7005 18.0188 21.5055 18.6548 21.3412 19.077C21.114 19.6403 20.8605 20.034 20.442 20.46C20.0522 20.8559 19.58 21.1611 19.059 21.354C18.642 21.519 17.997 21.714 16.8247 21.7687C15.552 21.8228 15.177 21.8385 11.9655 21.8385C8.754 21.8385 8.37975 21.8228 7.1055 21.7642C5.93775 21.7013 5.2935 21.5063 4.87125 21.342C4.30125 21.1147 3.9105 20.8612 3.492 20.4427C3.06975 20.0205 2.80125 19.6185 2.59425 19.0597C2.42625 18.6427 2.23425 17.9977 2.172 16.8255C2.12925 15.5677 2.109 15.1778 2.109 11.9813C2.109 8.78625 2.12925 8.3955 2.172 7.122C2.23425 5.94975 2.42625 5.30625 2.59425 4.88775C2.80125 4.317 3.0705 3.927 3.492 3.50475C3.90975 3.087 4.30125 2.817 4.87125 2.6055C5.2935 2.44125 5.922 2.24625 7.09425 2.18775C8.367 2.142 8.742 2.1255 11.949 2.1255L11.9985 2.16ZM11.9985 5.84025C11.1895 5.83995 10.3884 5.99908 9.64092 6.30853C8.89345 6.61798 8.21428 7.0717 7.64224 7.64374C7.0702 8.21578 6.61648 8.89495 6.30703 9.64242C5.99758 10.3899 5.83845 11.191 5.83875 12C5.83845 12.809 5.99758 13.6101 6.30703 14.3576C6.61648 15.1051 7.0702 15.7842 7.64224 16.3563C8.21428 16.9283 8.89345 17.382 9.64092 17.6915C10.3884 18.0009 11.1895 18.16 11.9985 18.1597C12.8075 18.16 13.6086 18.0009 14.3561 17.6915C15.1036 17.382 15.7827 16.9283 16.3548 16.3563C16.9268 15.7842 17.3805 15.1051 17.69 14.3576C17.9994 13.6101 18.1585 12.809 18.1582 12C18.1585 11.191 17.9994 10.3899 17.69 9.64242C17.3805 8.89495 16.9268 8.21578 16.3548 7.64374C15.7827 7.0717 15.1036 6.61798 14.3561 6.30853C13.6086 5.99908 12.8075 5.83995 11.9985 5.84025ZM11.9985 15.9998C9.7875 15.9998 7.99875 14.211 7.99875 12C7.99875 9.789 9.7875 8.00025 11.9985 8.00025C14.2095 8.00025 15.9982 9.789 15.9982 12C15.9982 14.211 14.2095 15.9998 11.9985 15.9998ZM19.8465 5.59425C19.8461 5.9765 19.694 6.34296 19.4235 6.6131C19.1531 6.88326 18.7865 7.035 18.4042 7.035C18.2152 7.035 18.0281 6.99777 17.8535 6.92544C17.6789 6.85311 17.5202 6.7471 17.3865 6.61345C17.2529 6.47981 17.1469 6.32115 17.0746 6.14653C17.0022 5.97191 16.965 5.78475 16.965 5.59575C16.965 5.40674 17.0022 5.21959 17.0746 5.04497C17.1469 4.87036 17.2529 4.71169 17.3865 4.57805C17.5202 4.4444 17.6789 4.33839 17.8535 4.26606C18.0281 4.19373 18.2152 4.1565 18.4042 4.1565C19.197 4.1565 19.8465 4.8015 19.8465 5.59425Z" fill="black"/>
</g>
<defs>
<clipPath id="clip0_4_299">
<rect width="24" height="24" fill="white"/>
</clipPath>
</defs>
</svg>
